<svg xmlns="http://www.w3.org/2000/svg" viewBox="0 0 499.68 592.47"><defs><style>.a{fill:#70f0a9;}</style></defs><path class="a" d="M0,515.64H44.58v14.94H19.91v15.36H43.5v14.93H19.91v30.3H0Z"/><path class="a" d="M80.07,515.64h20.34v60.17H125.3v15.36H80.07Z"/><path class="a" d="M200.18,575.16H178l-4.87,16H153.65l25.1-75.53h22.4l24,75.53h-21ZM189.79,531h-.22l-8.11,29.65h14.93Z"/><path class="a" d="M258.5,573c.65.36,1.55.8,2.7,1.3s2.51,1,4.06,1.52a38.55,38.55,0,0,0,5,1.24,29,29,0,0,0,5.35.49c3.9,0,6.6-.76,8.12-2.28a7.91,7.91,0,0,0,2.27-5.84,7.65,7.65,0,0,0-.59-3.14,5.94,5.94,0,0,0-1.79-2.21,13.35,13.35,0,0,0-2.92-1.68q-1.73-.76-3.9-1.62L272.35,559a36.86,36.86,0,0,1-7.79-4,19.46,19.46,0,0,1-5-4.93,18.24,18.24,0,0,1-2.65-6,30.7,30.7,0,0,1-.81-7.31,21.49,21.49,0,0,1,2.05-9.52,19.8,19.8,0,0,1,5.68-7,26.36,26.36,0,0,1,8.66-4.33,38.38,38.38,0,0,1,11.09-1.51,81.32,81.32,0,0,1,9.36.59,38.6,38.6,0,0,1,9.69,2.44l-.87,14.82a37.1,37.1,0,0,0-6.93-2.6,31.79,31.79,0,0,0-8.65-1.19,12.21,12.21,0,0,0-7.14,1.84,6.11,6.11,0,0,0-2.6,5.3,6.94,6.94,0,0,0,.43,2.6,6.22,6.22,0,0,0,1.41,2.06,12.55,12.55,0,0,0,2.65,1.94,40.63,40.63,0,0,0,4.17,2.06l9.09,4.11a32.87,32.87,0,0,1,4.86,2.76,19.16,19.16,0,0,1,4.06,3.79,16.94,16.94,0,0,1,2.82,5.3,23.35,23.35,0,0,1,1,7.3,26.3,26.3,0,0,1-2.11,10.88,20.72,20.72,0,0,1-6,7.84,26.11,26.11,0,0,1-9.36,4.71,43.5,43.5,0,0,1-12.07,1.57,60.28,60.28,0,0,1-12.06-1.08c-3.5-.72-6.19-1.34-8.06-1.84Z"/><path class="a" d="M380.55,560.44h-15.8v30.73H344.41V515.64h20.34v29h15.8v-29h20.34v75.53H380.55Z"/><path class="a" d="M456.51,563.69l-22.83-48.05h23.15l10.39,29h.22l9.85-29h22.39l-22.83,48.05v27.48H456.51Z"/><path class="a" d="M125,414.8A61.92,61.92,0,0,1,111.4,369L146.14,37H133.83A42.37,42.37,0,0,0,91.46,79.37v335a42.37,42.37,0,0,0,42.37,42.37h196a42.44,42.44,0,0,0,9.63-1.11L166.93,437.56A62,62,0,0,1,125,414.8Z"/><path class="a" d="M407.62,20.63,212.7.23c-1.5-.15-3-.23-4.46-.23a42.38,42.38,0,0,0-42.09,38L131.29,371.12A42.35,42.35,0,0,0,169,417.66l194.92,20.4a41.93,41.93,0,0,0,4.46.24,42.38,42.38,0,0,0,42.08-38L445.35,67.18A42.38,42.38,0,0,0,407.62,20.63Z"/></svg>